<mxfile host="app.diagrams.net" modified="2023-02-16T16:48:23.138Z" agent="5.0 (Windows NT 10.0; Win64; x64) AppleWebKit/537.36 (KHTML, like Gecko) Chrome/108.0.0.0 Safari/537.36 OPR/94.0.0.0 (Edition Yx GX)" etag="0rZ_w4_KkdHw9j4pFYBb" version="20.8.20" type="github">
  <diagram name="Страница 1" id="s5zjZvZaG0mz3NnlYMR-">
    <mxGraphModel dx="1393" dy="804" grid="1" gridSize="10" guides="1" tooltips="1" connect="1" arrows="1" fold="1" page="1" pageScale="1" pageWidth="1169" pageHeight="1654" math="0" shadow="0">
      <root>
        <mxCell id="0" />
        <mxCell id="1" parent="0" />
        <mxCell id="SWNVZv07ovedRghFVHUe-1" value="" style="shape=parallelogram;perimeter=parallelogramPerimeter;whiteSpace=wrap;html=1;fixedSize=1;" vertex="1" parent="1">
          <mxGeometry x="420" y="160" width="280" height="60" as="geometry" />
        </mxCell>
        <mxCell id="SWNVZv07ovedRghFVHUe-3" style="edgeStyle=orthogonalEdgeStyle;rounded=0;orthogonalLoop=1;jettySize=auto;html=1;entryX=0.5;entryY=0;entryDx=0;entryDy=0;" edge="1" parent="1" source="SWNVZv07ovedRghFVHUe-2" target="SWNVZv07ovedRghFVHUe-1">
          <mxGeometry relative="1" as="geometry" />
        </mxCell>
        <mxCell id="SWNVZv07ovedRghFVHUe-2" value="Start main/Program.cs" style="ellipse;whiteSpace=wrap;html=1;" vertex="1" parent="1">
          <mxGeometry x="500" y="50" width="120" height="80" as="geometry" />
        </mxCell>
      </root>
    </mxGraphModel>
  </diagram>
</mxfile>
